# xmcd CD database file
#
# Track frame offsets:
#        150
#        16646
#        35513
#        50794
#        70317
#        88569
#        99904
#        117546
#        134621
#        148703
#        163136
#        181267
#        195555
#        210830
#        223886
#        233803
#        251596
#        261659
#        273143
#        284782
#        299435
#        315173
#        331140
#
# Disc length: 4608 seconds
#
# Revision: 0
# Processed by: cddbd v1.5.2PL0 Copyright (c) Steve Scherf et al.
# Submitted via: CUERipper 2.1.5
#
DISCID=6211fe17
DTITLE=Nina Simone - Yumiko Hioki
DYEAR=1900
DGENRE=Blues
TTITLE0=My Baby Just Cares For Me
TTITLE1=I Loves You Porgy
TTITLE2=Love Me Or Leave Me
TTITLE3=Little Girl Blue
TTITLE4=Mood Indigo
TTITLE5=He Needs Me
TTITLE6=Plain Gold Ring
TTITLE7=You'll Never Walk Alone
TTITLE8=Central Park Blues
TTITLE9=He's Got the Whole World in His Hands
TTITLE10=For All We Know
TTITLE11=African Mailman
TTITLE12=Blue Prelude
TTITLE13=Children Go Where I Send You
TTITLE14=Stomping At the Savoy
TTITLE15=It Might As Well Be Spring
TTITLE16=You've Been Gone Too Long
TTITLE17=That's Him Over There
TTITLE18=Can't Get Out Of This Mood
TTITLE19=Willow Weep For Me
TTITLE20=Solitaire
TTITLE21=Black Is The Colour Of My True Love's Hair
TTITLE22=Exactly Like You
EXTD=
EXTT0=
EXTT1=
EXTT2=
EXTT3=
EXTT4=
EXTT5=
EXTT6=
EXTT7=
EXTT8=
EXTT9=
EXTT10=
EXTT11=
EXTT12=
EXTT13=
EXTT14=
EXTT15=
EXTT16=
EXTT17=
EXTT18=
EXTT19=
EXTT20=
EXTT21=
EXTT22=
PLAYORDER=
